Coordinates
version=1
nRows=14
nColumns=40
inDegrees=yes

Units are S.I. units (second, meters, Newtons, ...)
Angles are in degrees.

endheader
time	pelvis_tilt	pelvis_list	pelvis_rotation	pelvis_tx	pelvis_ty	pelvis_tz	hip_flexion_r	hip_adduction_r	hip_rotation_r	knee_angle_r	knee_angle_r_beta	ankle_angle_r	subtalar_angle_r	mtp_angle_r	hip_flexion_l	hip_adduction_l	hip_rotation_l	knee_angle_l	knee_angle_l_beta	ankle_angle_l	subtalar_angle_l	mtp_angle_l	lumbar_extension	lumbar_bending	lumbar_rotation	arm_flex_r	arm_add_r	arm_rot_r	elbow_flex_r	pro_sup_r	wrist_flex_r	wrist_dev_r	arm_flex_l	arm_add_l	arm_rot_l	elbow_flex_l	pro_sup_l	wrist_flex_l	wrist_dev_l
     13.79000000	     -5.67357415	     -4.01343850	      4.49363700	      1.01500563	      0.90287764	      0.56737867	     22.38906304	      5.55210462	     -1.66433789	     34.56261344	     34.56261344	     19.49425457	     -5.83707965	     -0.10140234	     34.40446904	    -12.80743259	     11.29369137	     68.66791397	     68.66791397	     12.25135598	    -18.28804089	     11.36383944	    -14.49166123	      5.14849965	      1.85968005	     41.57430468	    -13.91882062	      0.15685711	     98.36171628	     45.02930234	      0.00000000	      0.00000000	     -3.88826671	    -11.79811954	      6.65038643	     38.96246103	     45.63134209	      0.00000000	      0.00000000
     13.81164286	     -5.26912816	     -3.79083332	      4.96253412	      1.01533234	      0.90132926	      0.56791037	     22.21587274	      5.45626084	     -1.60259446	     35.71574818	     35.71574818	     20.07468249	     -6.67356953	     -0.19366256	     34.78127658	    -12.61414767	     11.72125826	     69.09469026	     69.09469026	     12.45741709	    -18.64319914	     11.82440813	    -14.48024203	      5.13641547	      1.87268549	     43.50590213	    -13.41112324	      0.25034025	     99.72719215	     44.99351106	      0.00000000	      0.00000000	     -5.16700383	    -11.61082760	      7.06613908	     38.08959507	     45.57395428	      0.00000000	      0.00000000
     13.83328571	     -4.85974018	     -3.60205466	      5.48976491	      1.01558187	      0.90006301	      0.56829825	     21.91491366	      5.41217203	     -1.53652832	     36.64555604	     36.64555604	     20.60986221	     -7.60831947	     -0.16866818	     35.14803094	    -12.46749819	     12.12742340	     69.16597277	     69.16597277	     12.77648314	    -18.84924833	     12.74637830	    -14.45477806	      5.20687103	      1.89372811	     45.50619951	    -12.90440265	      0.49501266	    101.11138983	     44.95369381	      0.00000000	      0.00000000	     -6.37793692	    -11.38439588	      7.81294895	     37.07672384	     45.47964091	      0.00000000	      0.00000000
     13.85492857	     -4.52317474	     -3.37524721	      6.05869263	      1.01560929	      0.89913379	      0.56838969	     21.60427405	      5.25907516	     -1.57630168	     37.42774498	     37.42774498	     21.21694376	     -8.23278360	      0.24775933	     35.53884894	    -12.19184787	     12.52231352	     68.79747322	     68.79747322	     13.70302730	    -18.91294869	     15.34618813	    -14.36318189	      5.25663000	      2.27479610	     47.55335244	    -12.95565823	      0.92991420	    102.08819840	     44.93373927	      0.00000000	      0.00000000	     -7.11688825	    -11.39689216	     10.73246862	     35.57604000	     45.16907062	      0.00000000	      0.00000000
     13.87657143	     -4.24850989	     -3.13722262	      6.63246447	      1.01539803	      0.89862556	      0.56822412	     21.24165345	      5.04181100	     -1.72330124	     37.95535892	     37.95535892	     21.55938447	     -8.76758071	      0.16209224	     35.81260675	    -12.01043057	     12.66766981	     67.65010690	     67.65010690	     13.77237466	    -19.00175439	     15.43782856	    -14.29529956	      5.24087357	      2.57066466	     49.64778282	    -12.81526966	      0.73608848	    102.99595006	     44.92187783	      0.00000000	      0.00000000	     -8.24340848	    -10.99850665	     11.15436999	     35.10628487	     45.10720094	      0.00000000	      0.00000000
     13.89821429	     -4.11982789	     -2.87413332	      7.23115972	      1.01495790	      0.89863788	      0.56763448	     20.85886666	      4.73906142	     -1.88911443	     38.14279386	     38.14279386	     21.80081684	     -9.18913034	      0.15086542	     36.07737862	    -11.75943744	     12.66525241	     65.80218287	     65.80218287	     13.80988683	    -19.02004819	     15.59003962	    -14.12103323	      5.20501397	      2.80401061	     51.60673805	    -12.77758370	      0.62091697	    103.73128893	     44.91181602	      0.00000000	      0.00000000	     -9.37031312	    -10.46223120	     11.59372719	     34.63637907	     45.04063048	      0.00000000	      0.00000000
     13.91985714	     -3.97904923	     -2.60706679	      7.86398587	      1.01421707	      0.89925654	      0.56671760	     20.37186986	      4.38660823	     -2.15225708	     38.14077034	     38.14077034	     21.99453419	     -9.51531320	      0.28353241	     36.11193276	    -11.46974743	     12.56269393	     63.18780622	     63.18780622	     13.49608628	    -19.00058737	     14.63125658	    -14.04071253	      5.22765760	      2.50944164	     54.00670708	    -12.27218058	      1.70772172	    104.21296482	     44.88242616	      0.00000000	      0.00000000	    -10.34258090	    -10.24382341	     14.91611572	     33.53048562	     44.63998609	      0.00000000	      0.00000000
     13.94150000	     -3.91972821	     -2.25703888	      8.44963570	      1.01327680	      0.90056063	      0.56537581	     19.77088233	      3.89347649	     -2.40868299	     37.77437746	     37.77437746	     22.06848771	     -9.61493283	      0.35623013	     35.96648617	    -11.01784636	     12.30407839	     59.91434084	     59.91434084	     13.47946958	    -18.85445423	     14.60958875	    -13.96829019	      5.05855072	      2.82329335	     55.98403328	    -12.43888759	      1.49041184	    104.74304475	     44.88338503	      0.00000000	      0.00000000	    -11.31366201	     -9.66098764	     15.58831426	     33.39362965	     44.54840913	      0.00000000	      0.00000000
     13.96314286	     -4.01091361	     -1.97427752	      9.04978758	      1.01211082	      0.90212166	      0.56370677	     19.20151643	      3.35706725	     -2.88450817	     37.12679516	     37.12679516	     22.04654239	     -9.35552108	      0.20489266	     35.66746217	    -10.66473695	     11.86391563	     55.78366434	     55.78366434	     11.97788580	    -18.72025665	     10.51979806	    -13.71176779	      4.98523530	      2.83814381	     58.06168701	    -12.55186291	      2.30454365	    104.77106275	     44.88190363	      0.00000000	      0.00000000	    -12.48574092	     -9.70803122	     20.18021356	     33.96385674	     44.00499013	      0.00000000	      0.00000000
     13.98478571	     -4.08928648	     -1.66373796	      9.59999053	      1.01082713	      0.90429619	      0.56174310	     18.45661241	      2.83776884	     -3.22418415	     36.18112672	     36.18112672	     21.95364405	     -9.24611395	      0.36386971	     35.17625262	    -10.04732361	     11.61592368	     51.43638184	     51.43638184	     11.93312195	    -18.18235352	     10.56039448	    -13.59379324	      4.76777932	      3.12082747	     59.82591109	    -12.76409027	      2.06516822	    105.23295992	     44.88532152	      0.00000000	      0.00000000	    -13.46146869	     -9.00587209	     20.87812511	     34.04941038	     43.92022446	      0.00000000	      0.00000000
     14.00642857	     -4.25803491	     -1.44296433	     10.12894529	      1.00946938	      0.90648110	      0.55959857	     17.69976018	      2.35632536	     -3.68756628	     34.98656732	     34.98656732	     21.68172629	     -8.92485941	     -0.00737279	     34.48194826	     -9.59806352	     11.20153361	     46.42722017	     46.42722017	     10.03694711	    -17.63142847	      5.87856216	    -13.32820145	      4.68753452	      3.34099744	     61.69477765	    -13.09713474	      2.48844208	    105.30436701	     44.89952369	      0.00000000	      0.00000000	    -14.69115278	     -9.23695093	     25.43153324	     35.59520333	     43.46836489	      0.00000000	      0.00000000
     14.02807143	     -4.44246803	     -1.18574823	     10.57884083	      1.00819112	      0.90885618	      0.55722722	     16.88159611	      1.85095051	     -4.07751566	     33.70452633	     33.70452633	     21.56455656	     -8.48532853	      0.16953743	     33.78116837	     -8.97248521	     10.89053487	     41.74913647	     41.74913647	     10.10958327	    -16.05585303	      6.25642291	    -13.10051218	      4.45544642	      3.57394163	     63.17055659	    -13.28250579	      2.42374112	    105.64631285	     44.89924114	      0.00000000	      0.00000000	    -15.72339857	     -8.51445470	     25.95951401	     35.64180784	     43.41144775	      0.00000000	      0.00000000
     14.04971429	     -4.60006323	     -1.04783331	     10.99065551	      1.00704450	      0.91113222	      0.55474491	     15.96731467	      1.40319490	     -4.74362127	     32.26568887	     32.26568887	     21.30709297	     -7.57930750	     -0.27320890	     32.97615420	     -8.51153921	     10.46069670	     37.10026527	     37.10026527	      9.70700878	    -14.08975232	      5.31052374	    -12.86596445	      4.36944878	      3.68870354	     64.83873902	    -13.51688187	      3.13847097	    105.62693970	     44.89892821	      0.00000000	      0.00000000	    -16.96549160	     -8.42006279	     28.56306561	     36.86590937	     43.20284960	      0.00000000	      0.00000000
     14.07135714	     -4.71132130	     -0.98569620	     11.32305920	      1.00613105	      0.91334613	      0.55227426	     14.97638527	      1.17754587	     -5.11525834	     30.76490805	     30.76490805	     21.13545053	     -7.12485383	     -0.05702383	     32.14797656	     -8.07168757	     10.10991396	     32.88925981	     32.88925981	      9.73942524	    -11.98055155	      5.95622543	    -12.66980936	      4.25628034	      3.99309180	     66.11408353	    -13.64039652	      3.02550003	    105.88149681	     44.90252876	      0.00000000	      0.00000000	    -17.95284866	     -7.81458051	     29.08919533	     36.98215707	     43.15333534	      0.00000000	      0.00000000
